<mxfile host="app.diagrams.net" modified="2023-05-31T06:00:43.996Z" agent="Mozilla/5.0 (Windows NT 10.0; Win64; x64) AppleWebKit/537.36 (KHTML, like Gecko) Chrome/113.0.0.0 Safari/537.36" etag="UVzQiqDo376FsLwgj60C" version="21.3.6" type="device">
  <diagram id="0iN4cRk-O3f9heEpMg_g" name="Page-1">
    <mxGraphModel dx="1955" dy="569" grid="1" gridSize="10" guides="1" tooltips="1" connect="1" arrows="1" fold="1" page="1" pageScale="1" pageWidth="850" pageHeight="1100" math="0" shadow="0">
      <root>
        <mxCell id="0" />
        <mxCell id="1" parent="0" />
        <mxCell id="29aiM7jhphycKeGwUz8S-75" value="" style="rounded=0;whiteSpace=wrap;html=1;strokeColor=#000000;strokeWidth=1;fillColor=none;fontSize=12;align=center;" parent="1" vertex="1">
          <mxGeometry x="-50" y="50" width="890" height="1020" as="geometry" />
        </mxCell>
        <mxCell id="29aiM7jhphycKeGwUz8S-73" value="" style="rounded=0;whiteSpace=wrap;html=1;dashed=1;strokeColor=#000000;fillColor=none;fontSize=10;align=center;perimeterSpacing=0;strokeWidth=1;movable=1;resizable=1;rotatable=1;deletable=1;editable=1;locked=0;connectable=1;" parent="1" vertex="1">
          <mxGeometry x="30" y="65" width="795" height="790" as="geometry" />
        </mxCell>
        <mxCell id="29aiM7jhphycKeGwUz8S-50" value="OPCODE [7:0]" style="text;html=1;align=left;verticalAlign=middle;resizable=0;points=[];autosize=1;fontSize=10;" parent="1" vertex="1">
          <mxGeometry x="80" y="220" width="80" height="20" as="geometry" />
        </mxCell>
        <mxCell id="29aiM7jhphycKeGwUz8S-15" style="edgeStyle=orthogonalEdgeStyle;rounded=0;orthogonalLoop=1;jettySize=auto;html=1;exitX=1;exitY=0.75;exitDx=0;exitDy=0;" parent="1" source="29aiM7jhphycKeGwUz8S-2" target="29aiM7jhphycKeGwUz8S-3" edge="1">
          <mxGeometry relative="1" as="geometry">
            <Array as="points">
              <mxPoint x="240" y="270" />
            </Array>
          </mxGeometry>
        </mxCell>
        <mxCell id="29aiM7jhphycKeGwUz8S-47" style="edgeStyle=orthogonalEdgeStyle;rounded=0;orthogonalLoop=1;jettySize=auto;html=1;exitX=0.75;exitY=1;exitDx=0;exitDy=0;entryX=1;entryY=0.5;entryDx=0;entryDy=0;fontSize=10;" parent="1" source="29aiM7jhphycKeGwUz8S-2" target="29aiM7jhphycKeGwUz8S-17" edge="1">
          <mxGeometry relative="1" as="geometry">
            <Array as="points">
              <mxPoint x="220" y="370" />
              <mxPoint x="570" y="370" />
            </Array>
          </mxGeometry>
        </mxCell>
        <mxCell id="29aiM7jhphycKeGwUz8S-48" style="edgeStyle=orthogonalEdgeStyle;rounded=0;orthogonalLoop=1;jettySize=auto;html=1;exitX=0.5;exitY=1;exitDx=0;exitDy=0;entryX=1;entryY=0.5;entryDx=0;entryDy=0;fontSize=10;" parent="1" source="29aiM7jhphycKeGwUz8S-2" target="29aiM7jhphycKeGwUz8S-31" edge="1">
          <mxGeometry relative="1" as="geometry">
            <Array as="points">
              <mxPoint x="210" y="300" />
              <mxPoint x="210" y="380" />
              <mxPoint x="630" y="380" />
            </Array>
          </mxGeometry>
        </mxCell>
        <mxCell id="29aiM7jhphycKeGwUz8S-49" style="edgeStyle=orthogonalEdgeStyle;rounded=0;orthogonalLoop=1;jettySize=auto;html=1;exitX=0.25;exitY=1;exitDx=0;exitDy=0;fontSize=10;entryX=0.504;entryY=0.83;entryDx=0;entryDy=0;entryPerimeter=0;strokeWidth=2;" parent="1" source="29aiM7jhphycKeGwUz8S-2" target="29aiM7jhphycKeGwUz8S-42" edge="1">
          <mxGeometry relative="1" as="geometry">
            <Array as="points">
              <mxPoint x="200" y="300" />
              <mxPoint x="200" y="390" />
              <mxPoint x="720" y="390" />
            </Array>
          </mxGeometry>
        </mxCell>
        <mxCell id="ruHP8NMIGA3WBFYWdepz-25" value="" style="edgeStyle=orthogonalEdgeStyle;rounded=0;orthogonalLoop=1;jettySize=auto;html=1;" edge="1" parent="1" source="29aiM7jhphycKeGwUz8S-2" target="29aiM7jhphycKeGwUz8S-50">
          <mxGeometry relative="1" as="geometry" />
        </mxCell>
        <mxCell id="29aiM7jhphycKeGwUz8S-2" value="Control Unit" style="rounded=0;whiteSpace=wrap;html=1;" parent="1" vertex="1">
          <mxGeometry x="160" y="180" width="80" height="120" as="geometry" />
        </mxCell>
        <mxCell id="29aiM7jhphycKeGwUz8S-19" style="edgeStyle=orthogonalEdgeStyle;rounded=0;orthogonalLoop=1;jettySize=auto;html=1;exitX=1;exitY=0.25;exitDx=0;exitDy=0;entryX=0.25;entryY=1;entryDx=0;entryDy=0;strokeWidth=2;" parent="1" source="29aiM7jhphycKeGwUz8S-3" target="29aiM7jhphycKeGwUz8S-17" edge="1">
          <mxGeometry relative="1" as="geometry" />
        </mxCell>
        <mxCell id="29aiM7jhphycKeGwUz8S-23" style="edgeStyle=orthogonalEdgeStyle;rounded=0;orthogonalLoop=1;jettySize=auto;html=1;exitX=1;exitY=0.25;exitDx=0;exitDy=0;entryX=0;entryY=0.5;entryDx=0;entryDy=0;strokeWidth=2;" parent="1" source="29aiM7jhphycKeGwUz8S-3" target="29aiM7jhphycKeGwUz8S-16" edge="1">
          <mxGeometry relative="1" as="geometry">
            <Array as="points">
              <mxPoint x="470" y="200" />
              <mxPoint x="470" y="240" />
            </Array>
          </mxGeometry>
        </mxCell>
        <mxCell id="29aiM7jhphycKeGwUz8S-46" style="edgeStyle=orthogonalEdgeStyle;rounded=0;orthogonalLoop=1;jettySize=auto;html=1;exitX=1;exitY=0.75;exitDx=0;exitDy=0;entryX=-0.016;entryY=0.735;entryDx=0;entryDy=0;entryPerimeter=0;fontSize=10;strokeWidth=2;" parent="1" source="29aiM7jhphycKeGwUz8S-3" target="29aiM7jhphycKeGwUz8S-42" edge="1">
          <mxGeometry relative="1" as="geometry" />
        </mxCell>
        <mxCell id="29aiM7jhphycKeGwUz8S-3" value="8x8 Register File" style="rounded=0;whiteSpace=wrap;html=1;" parent="1" vertex="1">
          <mxGeometry x="380" y="160" width="80" height="160" as="geometry" />
        </mxCell>
        <mxCell id="29aiM7jhphycKeGwUz8S-8" style="edgeStyle=orthogonalEdgeStyle;rounded=0;orthogonalLoop=1;jettySize=auto;html=1;exitX=0;exitY=0.5;exitDx=0;exitDy=0;entryX=0;entryY=0.5;entryDx=0;entryDy=0;strokeWidth=2;" parent="1" source="29aiM7jhphycKeGwUz8S-4" target="29aiM7jhphycKeGwUz8S-2" edge="1">
          <mxGeometry relative="1" as="geometry">
            <Array as="points">
              <mxPoint x="70" y="960" />
              <mxPoint x="70" y="240" />
            </Array>
          </mxGeometry>
        </mxCell>
        <mxCell id="29aiM7jhphycKeGwUz8S-11" style="edgeStyle=orthogonalEdgeStyle;rounded=0;orthogonalLoop=1;jettySize=auto;html=1;exitX=0;exitY=0.5;exitDx=0;exitDy=0;entryX=0;entryY=0.125;entryDx=0;entryDy=0;entryPerimeter=0;strokeWidth=2;" parent="1" source="29aiM7jhphycKeGwUz8S-4" target="29aiM7jhphycKeGwUz8S-3" edge="1">
          <mxGeometry relative="1" as="geometry">
            <mxPoint x="320" y="180" as="targetPoint" />
            <Array as="points">
              <mxPoint x="70" y="960" />
              <mxPoint x="70" y="120" />
              <mxPoint x="280" y="120" />
              <mxPoint x="280" y="180" />
            </Array>
          </mxGeometry>
        </mxCell>
        <mxCell id="29aiM7jhphycKeGwUz8S-12" style="edgeStyle=orthogonalEdgeStyle;rounded=0;orthogonalLoop=1;jettySize=auto;html=1;exitX=0;exitY=0.5;exitDx=0;exitDy=0;strokeWidth=2;" parent="1" source="29aiM7jhphycKeGwUz8S-4" target="29aiM7jhphycKeGwUz8S-3" edge="1">
          <mxGeometry relative="1" as="geometry">
            <mxPoint x="320" y="210" as="targetPoint" />
            <Array as="points">
              <mxPoint x="70" y="960" />
              <mxPoint x="70" y="130" />
              <mxPoint x="270" y="130" />
              <mxPoint x="270" y="211" />
            </Array>
          </mxGeometry>
        </mxCell>
        <mxCell id="29aiM7jhphycKeGwUz8S-13" style="edgeStyle=orthogonalEdgeStyle;rounded=0;orthogonalLoop=1;jettySize=auto;html=1;exitX=0;exitY=0.5;exitDx=0;exitDy=0;entryX=0;entryY=0.5;entryDx=0;entryDy=0;strokeWidth=2;" parent="1" source="29aiM7jhphycKeGwUz8S-4" target="29aiM7jhphycKeGwUz8S-3" edge="1">
          <mxGeometry relative="1" as="geometry">
            <Array as="points">
              <mxPoint x="70" y="960" />
              <mxPoint x="70" y="140" />
              <mxPoint x="260" y="140" />
              <mxPoint x="260" y="240" />
            </Array>
          </mxGeometry>
        </mxCell>
        <mxCell id="29aiM7jhphycKeGwUz8S-33" style="edgeStyle=orthogonalEdgeStyle;rounded=0;orthogonalLoop=1;jettySize=auto;html=1;exitX=0;exitY=0.5;exitDx=0;exitDy=0;entryX=0.25;entryY=1;entryDx=0;entryDy=0;fontSize=10;strokeWidth=2;" parent="1" source="29aiM7jhphycKeGwUz8S-4" target="29aiM7jhphycKeGwUz8S-31" edge="1">
          <mxGeometry relative="1" as="geometry">
            <Array as="points">
              <mxPoint x="70" y="960" />
              <mxPoint x="70" y="110" />
              <mxPoint x="600" y="110" />
              <mxPoint x="600" y="180" />
            </Array>
          </mxGeometry>
        </mxCell>
        <mxCell id="29aiM7jhphycKeGwUz8S-4" value="Instruction Memory" style="rounded=0;whiteSpace=wrap;html=1;" parent="1" vertex="1">
          <mxGeometry x="160" y="880" width="80" height="160" as="geometry" />
        </mxCell>
        <mxCell id="29aiM7jhphycKeGwUz8S-6" value="PC" style="rounded=0;whiteSpace=wrap;html=1;" parent="1" vertex="1">
          <mxGeometry x="126" y="740" width="80" height="40" as="geometry" />
        </mxCell>
        <mxCell id="29aiM7jhphycKeGwUz8S-20" style="edgeStyle=orthogonalEdgeStyle;rounded=0;orthogonalLoop=1;jettySize=auto;html=1;exitX=1;exitY=0.5;exitDx=0;exitDy=0;entryX=0.75;entryY=1;entryDx=0;entryDy=0;strokeWidth=2;" parent="1" source="29aiM7jhphycKeGwUz8S-16" target="29aiM7jhphycKeGwUz8S-17" edge="1">
          <mxGeometry relative="1" as="geometry" />
        </mxCell>
        <mxCell id="29aiM7jhphycKeGwUz8S-16" value="2&#39;s Comp" style="rounded=0;whiteSpace=wrap;html=1;" parent="1" vertex="1">
          <mxGeometry x="490" y="225" width="50" height="30" as="geometry" />
        </mxCell>
        <mxCell id="29aiM7jhphycKeGwUz8S-32" style="edgeStyle=orthogonalEdgeStyle;rounded=0;orthogonalLoop=1;jettySize=auto;html=1;exitX=0.5;exitY=0;exitDx=0;exitDy=0;entryX=0.75;entryY=1;entryDx=0;entryDy=0;fontSize=10;strokeWidth=2;" parent="1" source="29aiM7jhphycKeGwUz8S-17" target="29aiM7jhphycKeGwUz8S-31" edge="1">
          <mxGeometry relative="1" as="geometry" />
        </mxCell>
        <mxCell id="29aiM7jhphycKeGwUz8S-17" value="M&lt;br&gt;U&lt;br&gt;X" style="shape=trapezoid;perimeter=trapezoidPerimeter;whiteSpace=wrap;html=1;rotation=90;horizontal=0;fontStyle=0" parent="1" vertex="1">
          <mxGeometry x="530" y="206.25" width="80" height="27.5" as="geometry" />
        </mxCell>
        <mxCell id="29aiM7jhphycKeGwUz8S-24" value="READREG2 [2:0]" style="text;html=1;align=left;verticalAlign=middle;resizable=0;points=[];autosize=1;fontSize=10;" parent="1" vertex="1">
          <mxGeometry x="287" y="160" width="90" height="20" as="geometry" />
        </mxCell>
        <mxCell id="29aiM7jhphycKeGwUz8S-25" value="READREG1 [2:0]" style="text;html=1;align=left;verticalAlign=middle;resizable=0;points=[];autosize=1;fontSize=10;" parent="1" vertex="1">
          <mxGeometry x="287" y="190.25" width="90" height="20" as="geometry" />
        </mxCell>
        <mxCell id="29aiM7jhphycKeGwUz8S-26" value="WRITEREG [2:0]" style="text;html=1;align=left;verticalAlign=middle;resizable=0;points=[];autosize=1;fontSize=10;" parent="1" vertex="1">
          <mxGeometry x="287" y="220" width="90" height="20" as="geometry" />
        </mxCell>
        <mxCell id="29aiM7jhphycKeGwUz8S-27" value="WRITEENABLE" style="text;html=1;align=left;verticalAlign=middle;resizable=0;points=[];autosize=1;fontSize=10;" parent="1" vertex="1">
          <mxGeometry x="287" y="250" width="90" height="20" as="geometry" />
        </mxCell>
        <mxCell id="29aiM7jhphycKeGwUz8S-30" value="REGOUT2 [7:0]" style="text;html=1;strokeColor=none;fillColor=none;align=center;verticalAlign=middle;whiteSpace=wrap;rounded=0;fontSize=10;" parent="1" vertex="1">
          <mxGeometry x="460" y="180" width="80" height="20" as="geometry" />
        </mxCell>
        <mxCell id="29aiM7jhphycKeGwUz8S-43" style="edgeStyle=orthogonalEdgeStyle;rounded=0;orthogonalLoop=1;jettySize=auto;html=1;exitX=0.5;exitY=0;exitDx=0;exitDy=0;fontSize=10;strokeWidth=2;" parent="1" source="29aiM7jhphycKeGwUz8S-31" edge="1">
          <mxGeometry relative="1" as="geometry">
            <mxPoint x="679" y="200" as="targetPoint" />
          </mxGeometry>
        </mxCell>
        <mxCell id="29aiM7jhphycKeGwUz8S-31" value="M&lt;br&gt;U&lt;br&gt;X" style="shape=trapezoid;perimeter=trapezoidPerimeter;whiteSpace=wrap;html=1;rotation=90;horizontal=0;" parent="1" vertex="1">
          <mxGeometry x="590" y="186.5" width="80" height="27.5" as="geometry" />
        </mxCell>
        <mxCell id="29aiM7jhphycKeGwUz8S-34" value="IMMEDIATE [7:0]" style="text;html=1;align=center;verticalAlign=middle;resizable=0;points=[];autosize=1;fontSize=10;" parent="1" vertex="1">
          <mxGeometry x="320" y="90" width="90" height="20" as="geometry" />
        </mxCell>
        <mxCell id="29aiM7jhphycKeGwUz8S-44" style="edgeStyle=orthogonalEdgeStyle;rounded=0;orthogonalLoop=1;jettySize=auto;html=1;exitX=0.702;exitY=0.507;exitDx=0;exitDy=0;entryX=-0.005;entryY=0.864;entryDx=0;entryDy=0;entryPerimeter=0;fontSize=10;exitPerimeter=0;strokeWidth=2;" parent="1" source="29aiM7jhphycKeGwUz8S-42" target="29aiM7jhphycKeGwUz8S-3" edge="1">
          <mxGeometry relative="1" as="geometry">
            <Array as="points">
              <mxPoint x="736" y="245" />
              <mxPoint x="780" y="245" />
              <mxPoint x="780" y="360" />
              <mxPoint x="360" y="360" />
              <mxPoint x="360" y="298" />
            </Array>
          </mxGeometry>
        </mxCell>
        <mxCell id="29aiM7jhphycKeGwUz8S-42" value="&amp;nbsp; &amp;nbsp; &amp;nbsp; &amp;nbsp;ALU" style="shape=stencil(vZXdjoMgEIWfhtsGYY3XG3f3PailKykFA/Tv7TuKNmJL2zRiYgwwx+8wZAYRLW3NGo4IrhH9QYRkGMMb5qfJnNmGV84vHpkRbC25j1hn9I6fxMb1DKFqboRro/QX4W/QtM9tQMtKKwU0oZUNJBPhSA4mTChg4rM36bd1CWYN+O6546bfvF9F5O9jl1W+iE+2TDahy5Bb6myS+YT5ZAvVQCqfbDYXWoIg1mMj1ZpVu3+jD2rzkhaRjkRbbfhr2E0tpPQXx/uH1rD2hrnTPVQP3+z1kUcb4NlhPqVKoUbUIsSSPA23mIs7aZvhhp+ZmxczYafcNNv9oh9jK6ltvIwjxQziSD3fSd/tkw4aaUMYdGH/u+8iVw==);whiteSpace=wrap;html=1;strokeColor=#000000;fillColor=#ffffff;fontSize=10;align=left;" parent="1" vertex="1">
          <mxGeometry x="680" y="155" width="80" height="170" as="geometry" />
        </mxCell>
        <mxCell id="29aiM7jhphycKeGwUz8S-51" value="INSTRUCTION&lt;br&gt;[31:0]" style="text;html=1;align=left;verticalAlign=middle;resizable=0;points=[];autosize=1;fontSize=10;" parent="1" vertex="1">
          <mxGeometry x="83" y="930" width="80" height="30" as="geometry" />
        </mxCell>
        <mxCell id="29aiM7jhphycKeGwUz8S-53" value="&lt;br&gt;[31:0]" style="text;html=1;align=left;verticalAlign=middle;resizable=0;points=[];autosize=1;fontSize=10;" parent="1" vertex="1">
          <mxGeometry x="257" y="925" width="50" height="40" as="geometry" />
        </mxCell>
        <mxCell id="29aiM7jhphycKeGwUz8S-55" style="edgeStyle=orthogonalEdgeStyle;rounded=0;orthogonalLoop=1;jettySize=auto;html=1;entryX=0.021;entryY=0.16;entryDx=0;entryDy=0;fontSize=10;entryPerimeter=0;" parent="1" target="29aiM7jhphycKeGwUz8S-6" edge="1">
          <mxGeometry relative="1" as="geometry">
            <Array as="points">
              <mxPoint x="118" y="420" />
              <mxPoint x="118" y="746" />
            </Array>
            <mxPoint x="-8" y="420" as="sourcePoint" />
            <mxPoint x="118" y="750" as="targetPoint" />
          </mxGeometry>
        </mxCell>
        <mxCell id="29aiM7jhphycKeGwUz8S-56" style="edgeStyle=orthogonalEdgeStyle;rounded=0;orthogonalLoop=1;jettySize=auto;html=1;exitX=1;exitY=0.5;exitDx=0;exitDy=0;entryX=0.25;entryY=1;entryDx=0;entryDy=0;fontSize=10;" parent="1" source="29aiM7jhphycKeGwUz8S-54" target="29aiM7jhphycKeGwUz8S-3" edge="1">
          <mxGeometry relative="1" as="geometry">
            <Array as="points">
              <mxPoint x="50" y="420" />
              <mxPoint x="50" y="340" />
              <mxPoint x="400" y="340" />
            </Array>
          </mxGeometry>
        </mxCell>
        <mxCell id="29aiM7jhphycKeGwUz8S-54" value="RESET" style="text;html=1;strokeColor=none;fillColor=none;align=right;verticalAlign=middle;whiteSpace=wrap;rounded=0;fontSize=10;" parent="1" vertex="1">
          <mxGeometry x="-40" y="410" width="40" height="20" as="geometry" />
        </mxCell>
        <mxCell id="29aiM7jhphycKeGwUz8S-60" style="edgeStyle=orthogonalEdgeStyle;rounded=0;orthogonalLoop=1;jettySize=auto;html=1;exitX=1;exitY=0.5;exitDx=0;exitDy=0;entryX=0;entryY=0.75;entryDx=0;entryDy=0;fontSize=10;" parent="1" source="29aiM7jhphycKeGwUz8S-57" target="29aiM7jhphycKeGwUz8S-6" edge="1">
          <mxGeometry relative="1" as="geometry" />
        </mxCell>
        <mxCell id="29aiM7jhphycKeGwUz8S-61" style="edgeStyle=orthogonalEdgeStyle;rounded=0;orthogonalLoop=1;jettySize=auto;html=1;exitX=1;exitY=0.5;exitDx=0;exitDy=0;entryX=0.75;entryY=1;entryDx=0;entryDy=0;fontSize=10;" parent="1" source="29aiM7jhphycKeGwUz8S-57" target="29aiM7jhphycKeGwUz8S-3" edge="1">
          <mxGeometry relative="1" as="geometry">
            <Array as="points">
              <mxPoint x="60" y="440" />
              <mxPoint x="60" y="350" />
              <mxPoint x="440" y="350" />
            </Array>
          </mxGeometry>
        </mxCell>
        <mxCell id="29aiM7jhphycKeGwUz8S-57" value="CLK" style="text;html=1;strokeColor=none;fillColor=none;align=right;verticalAlign=middle;whiteSpace=wrap;rounded=0;fontSize=10;" parent="1" vertex="1">
          <mxGeometry x="-40" y="430" width="40" height="20" as="geometry" />
        </mxCell>
        <mxCell id="29aiM7jhphycKeGwUz8S-64" value="" style="triangle;whiteSpace=wrap;html=1;strokeColor=#000000;fillColor=#ffffff;fontSize=10;align=right;" parent="1" vertex="1">
          <mxGeometry x="127" y="766" width="6" height="8" as="geometry" />
        </mxCell>
        <mxCell id="29aiM7jhphycKeGwUz8S-65" value="" style="triangle;whiteSpace=wrap;html=1;strokeColor=#000000;fillColor=#ffffff;fontSize=10;align=right;rotation=-90;" parent="1" vertex="1">
          <mxGeometry x="437" y="313" width="6" height="8" as="geometry" />
        </mxCell>
        <mxCell id="29aiM7jhphycKeGwUz8S-66" value="REGOUT1 [7:0]" style="text;html=1;strokeColor=none;fillColor=none;align=center;verticalAlign=middle;whiteSpace=wrap;rounded=0;fontSize=10;" parent="1" vertex="1">
          <mxGeometry x="460" y="260" width="80" height="20" as="geometry" />
        </mxCell>
        <mxCell id="29aiM7jhphycKeGwUz8S-67" value="ALUOP [2:0]" style="text;html=1;align=center;verticalAlign=middle;resizable=0;points=[];autosize=1;fontSize=10;" parent="1" vertex="1">
          <mxGeometry x="650" y="325" width="70" height="20" as="geometry" />
        </mxCell>
        <mxCell id="29aiM7jhphycKeGwUz8S-68" value="ALURESULT [7:0]" style="text;html=1;align=center;verticalAlign=middle;resizable=0;points=[];autosize=1;fontSize=10;rotation=90;" parent="1" vertex="1">
          <mxGeometry x="740" y="293" width="100" height="20" as="geometry" />
        </mxCell>
        <mxCell id="29aiM7jhphycKeGwUz8S-74" value="CPU" style="text;html=1;align=center;verticalAlign=middle;resizable=0;points=[];autosize=1;fontSize=12;" parent="1" vertex="1">
          <mxGeometry x="770" y="80" width="40" height="20" as="geometry" />
        </mxCell>
        <mxCell id="M0XaWrzblx9e9kCC10v2-5" value="" style="endArrow=classic;html=1;rounded=0;fontSize=12;startSize=8;endSize=8;entryX=0.175;entryY=0.75;entryDx=0;entryDy=0;entryPerimeter=0;edgeStyle=orthogonalEdgeStyle;" parent="1" target="ruHP8NMIGA3WBFYWdepz-3" edge="1">
          <mxGeometry width="50" height="50" relative="1" as="geometry">
            <mxPoint x="160" y="300" as="sourcePoint" />
            <mxPoint x="160" y="400" as="targetPoint" />
            <Array as="points">
              <mxPoint x="160" y="544" />
            </Array>
          </mxGeometry>
        </mxCell>
        <mxCell id="ruHP8NMIGA3WBFYWdepz-1" value="&lt;font style=&quot;font-size: 10px;&quot;&gt;JUMP SELECT&lt;/font&gt;" style="text;html=1;strokeColor=none;fillColor=none;align=center;verticalAlign=middle;whiteSpace=wrap;rounded=0;fontSize=6;" vertex="1" parent="1">
          <mxGeometry x="170" y="514" width="60" height="30" as="geometry" />
        </mxCell>
        <mxCell id="ruHP8NMIGA3WBFYWdepz-2" value="" style="shape=or;whiteSpace=wrap;html=1;" vertex="1" parent="1">
          <mxGeometry x="730" y="440" width="30" height="40" as="geometry" />
        </mxCell>
        <mxCell id="ruHP8NMIGA3WBFYWdepz-3" value="" style="shape=xor;whiteSpace=wrap;html=1;" vertex="1" parent="1">
          <mxGeometry x="740" y="514" width="60" height="40" as="geometry" />
        </mxCell>
        <mxCell id="ruHP8NMIGA3WBFYWdepz-4" value="" style="endArrow=classic;html=1;rounded=0;exitX=0.711;exitY=0.319;exitDx=0;exitDy=0;edgeStyle=orthogonalEdgeStyle;entryX=0;entryY=0.25;entryDx=0;entryDy=0;entryPerimeter=0;exitPerimeter=0;" edge="1" parent="1" source="29aiM7jhphycKeGwUz8S-42" target="ruHP8NMIGA3WBFYWdepz-2">
          <mxGeometry width="50" height="50" relative="1" as="geometry">
            <mxPoint x="728.7600000000002" y="209.8" as="sourcePoint" />
            <mxPoint x="721" y="457" as="targetPoint" />
            <Array as="points">
              <mxPoint x="811" y="209" />
              <mxPoint x="811" y="417" />
              <mxPoint x="691" y="417" />
              <mxPoint x="691" y="447" />
              <mxPoint x="721" y="447" />
              <mxPoint x="721" y="450" />
            </Array>
          </mxGeometry>
        </mxCell>
        <mxCell id="ruHP8NMIGA3WBFYWdepz-6" value="" style="endArrow=classic;html=1;rounded=0;fontSize=12;entryX=0;entryY=0.75;entryDx=0;entryDy=0;entryPerimeter=0;edgeStyle=orthogonalEdgeStyle;" edge="1" parent="1" source="29aiM7jhphycKeGwUz8S-2" target="ruHP8NMIGA3WBFYWdepz-2">
          <mxGeometry width="50" height="50" relative="1" as="geometry">
            <mxPoint x="170" y="310" as="sourcePoint" />
            <mxPoint x="170" y="410" as="targetPoint" />
            <Array as="points">
              <mxPoint x="169" y="460" />
              <mxPoint x="710" y="460" />
              <mxPoint x="710" y="470" />
            </Array>
          </mxGeometry>
        </mxCell>
        <mxCell id="ruHP8NMIGA3WBFYWdepz-7" value="" style="endArrow=classic;html=1;rounded=0;entryX=0.175;entryY=0.25;entryDx=0;entryDy=0;entryPerimeter=0;exitX=1;exitY=0.5;exitDx=0;exitDy=0;exitPerimeter=0;edgeStyle=orthogonalEdgeStyle;" edge="1" parent="1" source="ruHP8NMIGA3WBFYWdepz-2" target="ruHP8NMIGA3WBFYWdepz-3">
          <mxGeometry width="50" height="50" relative="1" as="geometry">
            <mxPoint x="390" y="600" as="sourcePoint" />
            <mxPoint x="440" y="550" as="targetPoint" />
            <Array as="points">
              <mxPoint x="770" y="460" />
              <mxPoint x="770" y="497" />
              <mxPoint x="690" y="497" />
              <mxPoint x="690" y="524" />
            </Array>
          </mxGeometry>
        </mxCell>
        <mxCell id="ruHP8NMIGA3WBFYWdepz-8" value="M&lt;br&gt;U&lt;br&gt;X" style="shape=trapezoid;perimeter=trapezoidPerimeter;whiteSpace=wrap;html=1;rotation=90;horizontal=0;" vertex="1" parent="1">
          <mxGeometry x="690" y="670" width="80" height="27.5" as="geometry" />
        </mxCell>
        <mxCell id="ruHP8NMIGA3WBFYWdepz-9" value="" style="whiteSpace=wrap;html=1;aspect=fixed;" vertex="1" parent="1">
          <mxGeometry x="177" y="617.5" width="80" height="80" as="geometry" />
        </mxCell>
        <mxCell id="ruHP8NMIGA3WBFYWdepz-10" value="" style="whiteSpace=wrap;html=1;aspect=fixed;" vertex="1" parent="1">
          <mxGeometry x="490" y="617.5" width="80" height="80" as="geometry" />
        </mxCell>
        <mxCell id="ruHP8NMIGA3WBFYWdepz-11" value="SIGN&lt;br&gt;EXTENDER" style="text;html=1;strokeColor=none;fillColor=none;align=center;verticalAlign=middle;whiteSpace=wrap;rounded=0;" vertex="1" parent="1">
          <mxGeometry x="185" y="640" width="60" height="30" as="geometry" />
        </mxCell>
        <mxCell id="ruHP8NMIGA3WBFYWdepz-12" value="BRANCH&lt;br&gt;ADDER" style="text;html=1;strokeColor=none;fillColor=none;align=center;verticalAlign=middle;whiteSpace=wrap;rounded=0;" vertex="1" parent="1">
          <mxGeometry x="500" y="642.5" width="60" height="30" as="geometry" />
        </mxCell>
        <mxCell id="ruHP8NMIGA3WBFYWdepz-13" value="" style="endArrow=classic;html=1;rounded=0;exitX=1;exitY=0.5;exitDx=0;exitDy=0;entryX=0;entryY=0.5;entryDx=0;entryDy=0;edgeStyle=orthogonalEdgeStyle;" edge="1" parent="1" source="ruHP8NMIGA3WBFYWdepz-9" target="ruHP8NMIGA3WBFYWdepz-10">
          <mxGeometry width="50" height="50" relative="1" as="geometry">
            <mxPoint x="70" y="480" as="sourcePoint" />
            <mxPoint x="120" y="430" as="targetPoint" />
          </mxGeometry>
        </mxCell>
        <mxCell id="ruHP8NMIGA3WBFYWdepz-14" value="" style="endArrow=classic;html=1;rounded=0;exitX=1;exitY=0;exitDx=0;exitDy=0;edgeStyle=orthogonalEdgeStyle;entryX=0.25;entryY=1;entryDx=0;entryDy=0;" edge="1" parent="1" target="ruHP8NMIGA3WBFYWdepz-8">
          <mxGeometry width="50" height="50" relative="1" as="geometry">
            <mxPoint x="569" y="642.5" as="sourcePoint" />
            <mxPoint x="710" y="664" as="targetPoint" />
            <Array as="points">
              <mxPoint x="643" y="642" />
              <mxPoint x="643" y="664" />
            </Array>
          </mxGeometry>
        </mxCell>
        <mxCell id="ruHP8NMIGA3WBFYWdepz-15" value="&lt;font style=&quot;font-size: 10px;&quot;&gt;EQ SELECT&lt;/font&gt;" style="text;html=1;strokeColor=none;fillColor=none;align=center;verticalAlign=middle;whiteSpace=wrap;rounded=0;fontSize=6;" vertex="1" parent="1">
          <mxGeometry x="177" y="430" width="60" height="30" as="geometry" />
        </mxCell>
        <mxCell id="ruHP8NMIGA3WBFYWdepz-17" value="" style="endArrow=classic;html=1;rounded=0;exitX=1;exitY=0.5;exitDx=0;exitDy=0;edgeStyle=orthogonalEdgeStyle;exitPerimeter=0;" edge="1" parent="1" source="ruHP8NMIGA3WBFYWdepz-3">
          <mxGeometry width="50" height="50" relative="1" as="geometry">
            <mxPoint x="579" y="652.5" as="sourcePoint" />
            <mxPoint x="730" y="650" as="targetPoint" />
          </mxGeometry>
        </mxCell>
        <mxCell id="ruHP8NMIGA3WBFYWdepz-18" value="" style="endArrow=classic;html=1;rounded=0;exitX=1;exitY=0.5;exitDx=0;exitDy=0;entryX=0.5;entryY=1;entryDx=0;entryDy=0;edgeStyle=orthogonalEdgeStyle;" edge="1" parent="1" source="29aiM7jhphycKeGwUz8S-6" target="ruHP8NMIGA3WBFYWdepz-8">
          <mxGeometry width="50" height="50" relative="1" as="geometry">
            <mxPoint x="267" y="668" as="sourcePoint" />
            <mxPoint x="500" y="668" as="targetPoint" />
            <Array as="points">
              <mxPoint x="461" y="760" />
              <mxPoint x="461" y="720" />
              <mxPoint x="690" y="720" />
              <mxPoint x="690" y="684" />
            </Array>
          </mxGeometry>
        </mxCell>
        <mxCell id="ruHP8NMIGA3WBFYWdepz-19" value="INPUT 1" style="text;html=1;strokeColor=none;fillColor=none;align=center;verticalAlign=middle;whiteSpace=wrap;rounded=0;" vertex="1" parent="1">
          <mxGeometry x="590" y="697.5" width="60" height="30" as="geometry" />
        </mxCell>
        <mxCell id="ruHP8NMIGA3WBFYWdepz-20" value="INPUT 2" style="text;html=1;strokeColor=none;fillColor=none;align=center;verticalAlign=middle;whiteSpace=wrap;rounded=0;" vertex="1" parent="1">
          <mxGeometry x="591" y="610" width="60" height="30" as="geometry" />
        </mxCell>
        <mxCell id="ruHP8NMIGA3WBFYWdepz-21" value="SELECT" style="text;html=1;strokeColor=none;fillColor=none;align=center;verticalAlign=middle;whiteSpace=wrap;rounded=0;" vertex="1" parent="1">
          <mxGeometry x="740" y="610" width="60" height="30" as="geometry" />
        </mxCell>
        <mxCell id="ruHP8NMIGA3WBFYWdepz-22" value="" style="endArrow=classic;html=1;rounded=0;entryX=1;entryY=0.5;entryDx=0;entryDy=0;exitX=0.5;exitY=0;exitDx=0;exitDy=0;edgeStyle=orthogonalEdgeStyle;" edge="1" parent="1" source="ruHP8NMIGA3WBFYWdepz-8" target="29aiM7jhphycKeGwUz8S-4">
          <mxGeometry width="50" height="50" relative="1" as="geometry">
            <mxPoint x="90" y="890" as="sourcePoint" />
            <mxPoint x="140" y="840" as="targetPoint" />
          </mxGeometry>
        </mxCell>
        <mxCell id="ruHP8NMIGA3WBFYWdepz-23" value="ZERO" style="text;html=1;strokeColor=none;fillColor=none;align=center;verticalAlign=middle;whiteSpace=wrap;rounded=0;" vertex="1" parent="1">
          <mxGeometry x="740" y="180.25" width="60" height="30" as="geometry" />
        </mxCell>
        <mxCell id="ruHP8NMIGA3WBFYWdepz-24" value="" style="endArrow=classic;html=1;rounded=0;entryX=0;entryY=0.5;entryDx=0;entryDy=0;" edge="1" parent="1" target="ruHP8NMIGA3WBFYWdepz-9">
          <mxGeometry width="50" height="50" relative="1" as="geometry">
            <mxPoint x="70" y="658" as="sourcePoint" />
            <mxPoint x="270" y="340" as="targetPoint" />
          </mxGeometry>
        </mxCell>
        <mxCell id="ruHP8NMIGA3WBFYWdepz-26" value="OPCODE [23:16]" style="text;html=1;align=left;verticalAlign=middle;resizable=0;points=[];autosize=1;fontSize=10;" vertex="1" parent="1">
          <mxGeometry x="80" y="635" width="100" height="30" as="geometry" />
        </mxCell>
      </root>
    </mxGraphModel>
  </diagram>
</mxfile>
